<svg xmlns="http://www.w3.org/2000/svg" xmlns:xlink="http://www.w3.org/1999/xlink" width="500" zoomAndPan="magnify" viewBox="0 0 375 374.999991" height="500" preserveAspectRatio="xMidYMid meet" version="1.0"><defs><g/></defs><g fill="#000000" fill-opacity="1"><g transform="translate(151.377533, 172.886122)"><g><path d="M 8.46875 0 L 3.328125 0 L 3.328125 -25.75 L 8.46875 -25.75 Z M 8.46875 0 "/></g></g></g><g fill="#000000" fill-opacity="1"><g transform="translate(166.009868, 172.886122)"><g><path d="M 25.9375 0 L 18.890625 0 L 8.28125 -19.5625 C 8.40625 -17.21875 8.46875 -14.578125 8.46875 -11.640625 L 8.46875 0 L 3.328125 0 L 3.328125 -25.75 L 10.15625 -25.75 L 20.984375 -5.828125 C 20.859375 -8.140625 20.796875 -10.835938 20.796875 -13.921875 L 20.796875 -25.75 L 25.90625 -25.75 Z M 25.9375 0 "/></g></g></g><g fill="#000000" fill-opacity="1"><g transform="translate(198.109925, 172.886122)"><g><path d="M 11.875 -26.28125 C 14.8125 -26.28125 17.054688 -25.546875 18.609375 -24.078125 C 20.160156 -22.609375 21.085938 -20.640625 21.390625 -18.171875 L 16.125 -18.171875 C 15.976562 -19.515625 15.53125 -20.5625 14.78125 -21.3125 C 14.03125 -22.0625 13 -22.4375 11.6875 -22.4375 C 10.613281 -22.4375 9.738281 -22.171875 9.0625 -21.640625 C 8.394531 -21.117188 8.0625 -20.363281 8.0625 -19.375 C 8.0625 -18.28125 8.460938 -17.421875 9.265625 -16.796875 C 10.078125 -16.171875 11.503906 -15.625 13.546875 -15.15625 C 16.359375 -14.507812 18.429688 -13.523438 19.765625 -12.203125 C 21.097656 -10.890625 21.765625 -9.1875 21.765625 -7.09375 C 21.765625 -4.75 20.84375 -2.894531 19 -1.53125 C 17.15625 -0.164062 14.90625 0.515625 12.25 0.515625 C 9.113281 0.515625 6.609375 -0.171875 4.734375 -1.546875 C 2.867188 -2.929688 1.8125 -4.953125 1.5625 -7.609375 L 6.828125 -7.609375 C 7.097656 -6.242188 7.71875 -5.1875 8.6875 -4.4375 C 9.664062 -3.695312 10.828125 -3.328125 12.171875 -3.328125 C 13.359375 -3.328125 14.359375 -3.625 15.171875 -4.21875 C 15.984375 -4.8125 16.390625 -5.59375 16.390625 -6.5625 C 16.390625 -7.664062 15.992188 -8.550781 15.203125 -9.21875 C 14.421875 -9.894531 13.097656 -10.457031 11.234375 -10.90625 C 8.347656 -11.59375 6.195312 -12.515625 4.78125 -13.671875 C 3.363281 -14.835938 2.65625 -16.523438 2.65625 -18.734375 C 2.65625 -21.023438 3.550781 -22.851562 5.34375 -24.21875 C 7.132812 -25.59375 9.3125 -26.28125 11.875 -26.28125 Z M 11.875 -26.28125 "/></g></g></g><g fill="#000000" fill-opacity="1"><g transform="translate(224.536701, 172.886122)"><g><path d="M 8.46875 0 L 3.328125 0 L 3.328125 -25.75 L 8.46875 -25.75 Z M 8.46875 0 "/></g></g></g><g fill="#000000" fill-opacity="1"><g transform="translate(239.169036, 172.886122)"><g><path d="M 15.125 -13.140625 L 25.5 -13.140625 L 25.5 0 L 21.359375 0 L 21.015625 -4.1875 L 19.859375 -1.5625 C 18.441406 -0.175781 16.351562 0.515625 13.59375 0.515625 C 10.007812 0.515625 7.164062 -0.671875 5.0625 -3.046875 C 2.957031 -5.421875 1.90625 -8.648438 1.90625 -12.734375 C 1.90625 -16.859375 3.097656 -20.144531 5.484375 -22.59375 C 7.878906 -25.050781 10.914062 -26.28125 14.59375 -26.28125 C 17.957031 -26.28125 20.582031 -25.460938 22.46875 -23.828125 C 24.363281 -22.203125 25.445312 -20.054688 25.71875 -17.390625 L 25.75 -17.015625 L 20.609375 -17.015625 L 20.53125 -17.390625 C 19.851562 -20.753906 17.847656 -22.4375 14.515625 -22.4375 C 12.398438 -22.4375 10.675781 -21.585938 9.34375 -19.890625 C 8.019531 -18.203125 7.359375 -15.914062 7.359375 -13.03125 C 7.359375 -9.914062 8.003906 -7.519531 9.296875 -5.84375 C 10.585938 -4.164062 12.28125 -3.328125 14.375 -3.328125 C 16.039062 -3.328125 17.425781 -3.835938 18.53125 -4.859375 C 19.632812 -5.878906 20.3125 -7.296875 20.5625 -9.109375 L 15.125 -9.109375 Z M 15.125 -13.140625 "/></g></g></g><g fill="#000000" fill-opacity="1"><g transform="translate(270.410626, 172.886122)"><g><path d="M 25.640625 -25.75 L 25.640625 0 L 20.53125 0 L 20.53125 -10.5625 L 8.46875 -10.5625 L 8.46875 0 L 3.328125 0 L 3.328125 -25.75 L 8.46875 -25.75 L 8.46875 -14.671875 L 20.53125 -14.671875 L 20.53125 -25.75 Z M 25.640625 -25.75 "/></g></g></g><g fill="#000000" fill-opacity="1"><g transform="translate(302.212084, 172.886122)"><g><path d="M 23.484375 -21.71875 L 14.75 -21.71875 L 14.75 0 L 9.59375 0 L 9.59375 -21.71875 L 0.859375 -21.71875 L 0.859375 -25.75 L 23.484375 -25.75 Z M 23.484375 -21.71875 "/></g></g></g><g fill="#000000" fill-opacity="1"><g transform="translate(154.2164, 198.92067)"><g><path d="M 0.71875 -4.65625 C 0.71875 -5.570312 0.910156 -6.390625 1.296875 -7.109375 C 1.679688 -7.835938 2.210938 -8.40625 2.890625 -8.8125 C 3.566406 -9.21875 4.328125 -9.421875 5.171875 -9.421875 C 6.234375 -9.421875 7.128906 -9.171875 7.859375 -8.671875 C 8.585938 -8.179688 9.117188 -7.488281 9.453125 -6.59375 L 8.765625 -6.59375 C 8.492188 -7.300781 8.050781 -7.859375 7.4375 -8.265625 C 6.820312 -8.679688 6.066406 -8.890625 5.171875 -8.890625 C 4.453125 -8.890625 3.800781 -8.71875 3.21875 -8.375 C 2.632812 -8.039062 2.171875 -7.550781 1.828125 -6.90625 C 1.492188 -6.257812 1.328125 -5.507812 1.328125 -4.65625 C 1.328125 -3.800781 1.492188 -3.054688 1.828125 -2.421875 C 2.171875 -1.785156 2.632812 -1.296875 3.21875 -0.953125 C 3.800781 -0.609375 4.453125 -0.4375 5.171875 -0.4375 C 6.066406 -0.4375 6.820312 -0.640625 7.4375 -1.046875 C 8.050781 -1.460938 8.492188 -2.023438 8.765625 -2.734375 L 9.453125 -2.734375 C 9.117188 -1.835938 8.585938 -1.140625 7.859375 -0.640625 C 7.128906 -0.148438 6.234375 0.09375 5.171875 0.09375 C 4.328125 0.09375 3.566406 -0.101562 2.890625 -0.5 C 2.210938 -0.90625 1.679688 -1.46875 1.296875 -2.1875 C 0.910156 -2.914062 0.71875 -3.738281 0.71875 -4.65625 Z M 0.71875 -4.65625 "/></g></g></g><g fill="#000000" fill-opacity="1"><g transform="translate(168.224185, 198.92067)"><g><path d="M 5.25 0.109375 C 4.394531 0.109375 3.617188 -0.09375 2.921875 -0.5 C 2.234375 -0.90625 1.691406 -1.46875 1.296875 -2.1875 C 0.910156 -2.914062 0.71875 -3.738281 0.71875 -4.65625 C 0.71875 -5.570312 0.910156 -6.390625 1.296875 -7.109375 C 1.691406 -7.835938 2.234375 -8.40625 2.921875 -8.8125 C 3.617188 -9.21875 4.394531 -9.421875 5.25 -9.421875 C 6.113281 -9.421875 6.890625 -9.21875 7.578125 -8.8125 C 8.265625 -8.40625 8.800781 -7.835938 9.1875 -7.109375 C 9.582031 -6.390625 9.78125 -5.570312 9.78125 -4.65625 C 9.78125 -3.738281 9.582031 -2.914062 9.1875 -2.1875 C 8.800781 -1.46875 8.265625 -0.90625 7.578125 -0.5 C 6.890625 -0.09375 6.113281 0.109375 5.25 0.109375 Z M 5.25 -0.421875 C 5.988281 -0.421875 6.65625 -0.59375 7.25 -0.9375 C 7.84375 -1.289062 8.304688 -1.785156 8.640625 -2.421875 C 8.984375 -3.054688 9.15625 -3.800781 9.15625 -4.65625 C 9.15625 -5.507812 8.984375 -6.253906 8.640625 -6.890625 C 8.304688 -7.535156 7.84375 -8.03125 7.25 -8.375 C 6.65625 -8.71875 5.988281 -8.890625 5.25 -8.890625 C 4.519531 -8.890625 3.851562 -8.71875 3.25 -8.375 C 2.65625 -8.03125 2.1875 -7.535156 1.84375 -6.890625 C 1.5 -6.253906 1.328125 -5.507812 1.328125 -4.65625 C 1.328125 -3.800781 1.5 -3.054688 1.84375 -2.421875 C 2.1875 -1.785156 2.65625 -1.289062 3.25 -0.9375 C 3.851562 -0.59375 4.519531 -0.421875 5.25 -0.421875 Z M 5.25 -0.421875 "/></g></g></g><g fill="#000000" fill-opacity="1"><g transform="translate(182.497759, 198.92067)"><g><path d="M 7.765625 0 L 7.171875 0 L 1.6875 -8.34375 L 1.6875 0 L 1.09375 0 L 1.09375 -9.328125 L 1.6875 -9.328125 L 7.171875 -1 L 7.171875 -9.328125 L 7.765625 -9.328125 Z M 7.765625 0 "/></g></g></g><g fill="#000000" fill-opacity="1"><g transform="translate(195.136773, 198.92067)"><g><path d="M 3.796875 0.09375 C 3.191406 0.09375 2.660156 -0.0078125 2.203125 -0.21875 C 1.753906 -0.4375 1.398438 -0.726562 1.140625 -1.09375 C 0.890625 -1.457031 0.75 -1.859375 0.71875 -2.296875 L 1.34375 -2.296875 C 1.414062 -1.804688 1.644531 -1.367188 2.03125 -0.984375 C 2.414062 -0.609375 3.003906 -0.421875 3.796875 -0.421875 C 4.253906 -0.421875 4.648438 -0.503906 4.984375 -0.671875 C 5.328125 -0.847656 5.59375 -1.082031 5.78125 -1.375 C 5.96875 -1.664062 6.0625 -1.988281 6.0625 -2.34375 C 6.0625 -2.789062 5.953125 -3.144531 5.734375 -3.40625 C 5.515625 -3.675781 5.242188 -3.878906 4.921875 -4.015625 C 4.597656 -4.148438 4.160156 -4.289062 3.609375 -4.4375 C 3.015625 -4.601562 2.53125 -4.765625 2.15625 -4.921875 C 1.789062 -5.078125 1.476562 -5.320312 1.21875 -5.65625 C 0.96875 -5.988281 0.84375 -6.441406 0.84375 -7.015625 C 0.84375 -7.460938 0.960938 -7.867188 1.203125 -8.234375 C 1.441406 -8.609375 1.773438 -8.898438 2.203125 -9.109375 C 2.640625 -9.316406 3.140625 -9.421875 3.703125 -9.421875 C 4.535156 -9.421875 5.203125 -9.21875 5.703125 -8.8125 C 6.210938 -8.40625 6.515625 -7.90625 6.609375 -7.3125 L 5.96875 -7.3125 C 5.914062 -7.550781 5.796875 -7.796875 5.609375 -8.046875 C 5.429688 -8.296875 5.175781 -8.5 4.84375 -8.65625 C 4.507812 -8.820312 4.113281 -8.90625 3.65625 -8.90625 C 3.03125 -8.90625 2.503906 -8.734375 2.078125 -8.390625 C 1.660156 -8.054688 1.453125 -7.601562 1.453125 -7.03125 C 1.453125 -6.582031 1.5625 -6.222656 1.78125 -5.953125 C 2 -5.679688 2.269531 -5.472656 2.59375 -5.328125 C 2.914062 -5.191406 3.351562 -5.054688 3.90625 -4.921875 C 4.519531 -4.753906 5.003906 -4.59375 5.359375 -4.4375 C 5.722656 -4.28125 6.03125 -4.035156 6.28125 -3.703125 C 6.53125 -3.367188 6.65625 -2.921875 6.65625 -2.359375 C 6.65625 -1.941406 6.546875 -1.546875 6.328125 -1.171875 C 6.109375 -0.796875 5.78125 -0.488281 5.34375 -0.25 C 4.914062 -0.0195312 4.398438 0.09375 3.796875 0.09375 Z M 3.796875 0.09375 "/></g></g></g><g fill="#000000" fill-opacity="1"><g transform="translate(206.274117, 198.92067)"><g><path d="M 1.640625 -9.328125 L 1.640625 -3.5 C 1.640625 -2.445312 1.878906 -1.671875 2.359375 -1.171875 C 2.835938 -0.679688 3.488281 -0.4375 4.3125 -0.4375 C 5.125 -0.4375 5.765625 -0.679688 6.234375 -1.171875 C 6.703125 -1.660156 6.9375 -2.4375 6.9375 -3.5 L 6.9375 -9.328125 L 7.546875 -9.328125 L 7.546875 -3.515625 C 7.546875 -2.296875 7.25 -1.390625 6.65625 -0.796875 C 6.070312 -0.203125 5.289062 0.09375 4.3125 0.09375 C 3.320312 0.09375 2.523438 -0.203125 1.921875 -0.796875 C 1.328125 -1.398438 1.03125 -2.304688 1.03125 -3.515625 L 1.03125 -9.328125 Z M 1.640625 -9.328125 "/></g></g></g><g fill="#000000" fill-opacity="1"><g transform="translate(218.620769, 198.92067)"><g><path d="M 1.6875 -0.5 L 5.15625 -0.5 L 5.15625 0 L 1.09375 0 L 1.09375 -9.328125 L 1.6875 -9.328125 Z M 1.6875 -0.5 "/></g></g></g><g fill="#000000" fill-opacity="1"><g transform="translate(227.817904, 198.92067)"><g><path d="M 6.25 -9.328125 L 6.25 -8.828125 L 3.59375 -8.828125 L 3.59375 0 L 2.984375 0 L 2.984375 -8.828125 L 0.328125 -8.828125 L 0.328125 -9.328125 Z M 6.25 -9.328125 "/></g></g></g><g fill="#000000" fill-opacity="1"><g transform="translate(238.17119, 198.92067)"><g><path d="M 1.6875 -9.328125 L 1.6875 0 L 1.09375 0 L 1.09375 -9.328125 Z M 1.6875 -9.328125 "/></g></g></g><g fill="#000000" fill-opacity="1"><g transform="translate(244.737089, 198.92067)"><g><path d="M 7.765625 0 L 7.171875 0 L 1.6875 -8.34375 L 1.6875 0 L 1.09375 0 L 1.09375 -9.328125 L 1.6875 -9.328125 L 7.171875 -1 L 7.171875 -9.328125 L 7.765625 -9.328125 Z M 7.765625 0 "/></g></g></g><g fill="#000000" fill-opacity="1"><g transform="translate(257.376103, 198.92067)"><g><path d="M 8.765625 -6.578125 C 8.492188 -7.273438 8.050781 -7.832031 7.4375 -8.25 C 6.820312 -8.664062 6.09375 -8.875 5.25 -8.875 C 4.519531 -8.875 3.851562 -8.703125 3.25 -8.359375 C 2.65625 -8.015625 2.1875 -7.523438 1.84375 -6.890625 C 1.5 -6.253906 1.328125 -5.507812 1.328125 -4.65625 C 1.328125 -3.800781 1.5 -3.054688 1.84375 -2.421875 C 2.1875 -1.785156 2.65625 -1.296875 3.25 -0.953125 C 3.851562 -0.609375 4.519531 -0.4375 5.25 -0.4375 C 5.957031 -0.4375 6.597656 -0.59375 7.171875 -0.90625 C 7.753906 -1.226562 8.21875 -1.6875 8.5625 -2.28125 C 8.90625 -2.875 9.097656 -3.5625 9.140625 -4.34375 L 4.96875 -4.34375 L 4.96875 -4.859375 L 9.75 -4.859375 L 9.75 -4.453125 C 9.71875 -3.585938 9.503906 -2.804688 9.109375 -2.109375 C 8.722656 -1.421875 8.191406 -0.878906 7.515625 -0.484375 C 6.847656 -0.0976562 6.09375 0.09375 5.25 0.09375 C 4.394531 0.09375 3.617188 -0.101562 2.921875 -0.5 C 2.234375 -0.90625 1.691406 -1.46875 1.296875 -2.1875 C 0.910156 -2.914062 0.71875 -3.738281 0.71875 -4.65625 C 0.71875 -5.570312 0.910156 -6.390625 1.296875 -7.109375 C 1.691406 -7.835938 2.234375 -8.40625 2.921875 -8.8125 C 3.617188 -9.21875 4.394531 -9.421875 5.25 -9.421875 C 6.25 -9.421875 7.113281 -9.164062 7.84375 -8.65625 C 8.582031 -8.15625 9.117188 -7.460938 9.453125 -6.578125 Z M 8.765625 -6.578125 "/></g></g></g><g fill="#000000" fill-opacity="1"><g transform="translate(271.609805, 198.92067)"><g/></g></g><g fill="#000000" fill-opacity="1"><g transform="translate(279.132521, 198.92067)"><g><path d="M 6.25 -9.328125 L 6.25 -8.828125 L 3.59375 -8.828125 L 3.59375 0 L 2.984375 0 L 2.984375 -8.828125 L 0.328125 -8.828125 L 0.328125 -9.328125 Z M 6.25 -9.328125 "/></g></g></g><g fill="#000000" fill-opacity="1"><g transform="translate(289.485807, 198.92067)"><g><path d="M 1.6875 -8.828125 L 1.6875 -4.9375 L 5.40625 -4.9375 L 5.40625 -4.421875 L 1.6875 -4.421875 L 1.6875 -0.5 L 5.8125 -0.5 L 5.8125 0 L 1.09375 0 L 1.09375 -9.328125 L 5.8125 -9.328125 L 5.8125 -8.828125 Z M 1.6875 -8.828125 "/></g></g></g><g fill="#000000" fill-opacity="1"><g transform="translate(299.785935, 198.92067)"><g><path d="M 0.71875 -4.65625 C 0.71875 -5.570312 0.910156 -6.390625 1.296875 -7.109375 C 1.679688 -7.835938 2.210938 -8.40625 2.890625 -8.8125 C 3.566406 -9.21875 4.328125 -9.421875 5.171875 -9.421875 C 6.234375 -9.421875 7.128906 -9.171875 7.859375 -8.671875 C 8.585938 -8.179688 9.117188 -7.488281 9.453125 -6.59375 L 8.765625 -6.59375 C 8.492188 -7.300781 8.050781 -7.859375 7.4375 -8.265625 C 6.820312 -8.679688 6.066406 -8.890625 5.171875 -8.890625 C 4.453125 -8.890625 3.800781 -8.71875 3.21875 -8.375 C 2.632812 -8.039062 2.171875 -7.550781 1.828125 -6.90625 C 1.492188 -6.257812 1.328125 -5.507812 1.328125 -4.65625 C 1.328125 -3.800781 1.492188 -3.054688 1.828125 -2.421875 C 2.171875 -1.785156 2.632812 -1.296875 3.21875 -0.953125 C 3.800781 -0.609375 4.453125 -0.4375 5.171875 -0.4375 C 6.066406 -0.4375 6.820312 -0.640625 7.4375 -1.046875 C 8.050781 -1.460938 8.492188 -2.023438 8.765625 -2.734375 L 9.453125 -2.734375 C 9.117188 -1.835938 8.585938 -1.140625 7.859375 -0.640625 C 7.128906 -0.148438 6.234375 0.09375 5.171875 0.09375 C 4.328125 0.09375 3.566406 -0.101562 2.890625 -0.5 C 2.210938 -0.90625 1.679688 -1.46875 1.296875 -2.1875 C 0.910156 -2.914062 0.71875 -3.738281 0.71875 -4.65625 Z M 0.71875 -4.65625 "/></g></g></g><g fill="#000000" fill-opacity="1"><g transform="translate(313.79372, 198.92067)"><g><path d="M 7.734375 -9.328125 L 7.734375 0 L 7.140625 0 L 7.140625 -4.515625 L 1.6875 -4.515625 L 1.6875 0 L 1.09375 0 L 1.09375 -9.328125 L 1.6875 -9.328125 L 1.6875 -5.03125 L 7.140625 -5.03125 L 7.140625 -9.328125 Z M 7.734375 -9.328125 "/></g></g></g><path fill="#000000" d="M 79.085938 228.542969 C 77.582031 228.542969 76.34375 227.328125 76.34375 225.800781 L 76.34375 146.269531 C 76.34375 144.769531 77.558594 143.527344 79.085938 143.527344 C 80.589844 143.527344 81.828125 144.742188 81.828125 146.269531 L 81.828125 225.828125 C 81.828125 227.328125 80.613281 228.570312 79.085938 228.570312 Z M 79.085938 228.542969 " fill-opacity="1" fill-rule="nonzero"/><path fill="#000000" d="M 88.179688 228.542969 C 86.679688 228.542969 85.4375 227.328125 85.4375 225.800781 L 85.4375 146.269531 C 85.4375 144.769531 86.652344 143.527344 88.179688 143.527344 C 89.683594 143.527344 90.921875 144.742188 90.921875 146.269531 L 90.921875 225.828125 C 90.921875 227.328125 89.710938 228.570312 88.179688 228.570312 Z M 88.179688 228.542969 " fill-opacity="1" fill-rule="nonzero"/><path fill="#000000" d="M 97.300781 228.542969 C 95.800781 228.542969 94.558594 227.328125 94.558594 225.800781 L 94.558594 146.269531 C 94.558594 144.769531 95.773438 143.527344 97.300781 143.527344 C 98.804688 143.527344 100.042969 144.742188 100.042969 146.269531 L 100.042969 225.828125 C 100.042969 227.328125 98.832031 228.570312 97.300781 228.570312 Z M 97.300781 228.542969 " fill-opacity="1" fill-rule="nonzero"/><path fill="#000000" d="M 97.679688 117.769531 C 98.289062 118.378906 98.828125 119.039062 99.304688 119.753906 C 99.78125 120.464844 100.1875 121.21875 100.515625 122.011719 C 100.84375 122.804688 101.089844 123.625 101.257812 124.464844 C 101.425781 125.308594 101.507812 126.15625 101.507812 127.015625 C 101.507812 127.875 101.425781 128.726562 101.257812 129.566406 C 101.089844 130.410156 100.84375 131.226562 100.515625 132.019531 C 100.1875 132.8125 99.78125 133.566406 99.304688 134.28125 C 98.828125 134.996094 98.289062 135.65625 97.679688 136.261719 C 97.074219 136.867188 96.414062 137.410156 95.699219 137.886719 C 94.984375 138.363281 94.230469 138.765625 93.4375 139.097656 C 92.644531 139.425781 91.828125 139.671875 90.984375 139.839844 C 90.144531 140.007812 89.292969 140.089844 88.433594 140.089844 C 87.574219 140.089844 86.726562 140.007812 85.882812 139.839844 C 85.042969 139.671875 84.222656 139.425781 83.429688 139.097656 C 82.636719 138.765625 81.882812 138.363281 81.171875 137.886719 C 80.457031 137.410156 79.796875 136.867188 79.1875 136.261719 C 78.582031 135.65625 78.039062 134.996094 77.5625 134.28125 C 77.085938 133.566406 76.683594 132.8125 76.355469 132.019531 C 76.027344 131.226562 75.777344 130.410156 75.609375 129.566406 C 75.445312 128.726562 75.359375 127.875 75.359375 127.015625 C 75.359375 126.15625 75.445312 125.308594 75.609375 124.464844 C 75.777344 123.625 76.027344 122.804688 76.355469 122.011719 C 76.683594 121.21875 77.085938 120.464844 77.5625 119.753906 C 78.039062 119.039062 78.582031 118.378906 79.1875 117.769531 C 79.796875 117.164062 80.457031 116.621094 81.171875 116.144531 C 81.882812 115.667969 82.636719 115.265625 83.429688 114.9375 C 84.222656 114.609375 85.042969 114.359375 85.882812 114.191406 C 86.726562 114.023438 87.574219 113.941406 88.433594 113.941406 C 89.292969 113.941406 90.144531 114.023438 90.984375 114.191406 C 91.828125 114.359375 92.644531 114.609375 93.4375 114.9375 C 94.230469 115.265625 94.984375 115.667969 95.699219 116.144531 C 96.414062 116.621094 97.074219 117.164062 97.679688 117.769531 Z M 97.679688 117.769531 " fill-opacity="1" fill-rule="nonzero"/><path stroke-linecap="round" transform="matrix(0, 0.75, -0.75, 0, 132.179117, 108.362395)" fill="none" stroke-linejoin="miter" d="M 0.501181 0.49924 L 164.917859 0.49924 " stroke="#191919" stroke-width="1" stroke-opacity="1" stroke-miterlimit="4"/></svg>